<?xml version="1.0" standalone="yes"?>
<svg xmlns="http://www.w3.org/2000/svg" width="1262" height="1262">
<path style="fill:#020101; stroke:none;" d="M0 0L0 1262L1262 1262L1262 0L0 0z"/>
<path style="fill:#e0ca43; stroke:none;" d="M235 639C275.306 639 315.718 641 356 641C356 711.34 353 781.643 353 852C353 868.996 352 885.954 352 903C352 907.087 350.061 918.167 353.603 920.972C355.875 922.772 360.307 922 363 922C371.054 922 378.962 921 387 921C419.04 920.998 451.016 920 483 920C483 942.961 483.957 966.076 484.961 989C485.208 994.655 484.925 1000.34 485.004 1006C485.035 1008.24 484.79 1011.39 486.742 1012.97C488.784 1014.62 492.571 1014 495 1014L516 1014C543.706 1014 571.351 1013 599 1013C707.719 1013 816.284 1011 925 1011C925 860.286 921 709.658 921 559C939.939 559 959.083 557.868 978 557.039C982.638 556.836 987.357 557.363 991.981 556.941C993.55 556.798 995.708 556.564 996.118 554.682C996.696 552.032 993.917 549.14 992.42 547.286C987.674 541.408 982.641 535.739 977.729 530C964.03 513.994 950.133 498.135 936.589 482C931.687 476.16 922.191 468.518 920.318 461C918.912 455.355 920.307 448.786 919.911 443C918.364 420.422 919 397.661 919 375L919 353C918.995 350.59 919.552 346.886 917.397 345.179C915.467 343.651 912.293 344.013 910 344.001L893 344C875.722 343.993 858.35 343 841 343C834.794 343 824.646 344.918 819.04 341.972C812.25 338.403 806.515 327.099 802 321C789.812 304.533 777.171 288.389 764.873 272C760.243 265.829 754.796 254.743 747.91 251.028C741.983 247.83 730.613 250 724 250C704.318 250 684.608 250.999 665 251C591.943 251.005 519.023 252 446 252C423.608 252 401.372 253 379 253L362 253C359.764 253.005 356.492 252.532 354.603 254.028C351.4 256.565 353 265.368 353 269C353 282.448 354.291 296.643 352.715 310C350.664 327.375 352 345.503 352 363L352 459C352 472.736 351.638 486.323 351.039 500C350.789 505.713 352.593 513.758 349.972 519C348.027 522.891 344.029 525.971 341 529L322 548C302.494 567.506 283.508 587.492 264 607L245 626C241.051 629.949 236.543 633.501 235 639z"/>
<path style="fill:#020101; stroke:none;" d="M357 257C357 319.026 356 380.943 356 443C356 461.692 356.365 480.381 355.09 499C354.658 505.304 356.852 514.222 353.972 520C351.622 524.716 346.688 528.462 343.05 532.17C336.304 539.046 329.824 546.176 323 553C304.799 571.201 286.856 589.61 268.91 608.039C260.369 616.811 250.057 624.982 243 635C271.634 635 300.302 636 329 636L350 636C352.659 636.005 356.326 635.533 358.397 637.603C361.905 641.112 360 651.41 360 656C360 673.293 359 690.64 359 708C359 778.018 356 847.964 356 918C399.669 918 443.316 916 487 916C487 947.286 489 978.711 489 1010C633.022 1010 776.979 1007 921 1007C921 936.947 919.836 866.972 919.004 797C918.623 765.015 919.769 732.977 918.985 701C917.796 652.441 917 603.582 917 555C941.683 555 966.317 553 991 553C987.198 544.836 979.11 537.847 973.272 531C960.478 515.997 947.733 500.945 934.87 486C929.143 479.346 920.448 472.14 916.938 464C915.156 459.866 916 454.404 916 450C916 442.622 915 435.384 915 428L915 348C891.281 348 867.722 347 844 347C837.944 347 832.025 346.076 826 346.004C822.479 345.962 818.315 346.617 815.3 344.397C808.661 339.507 803.329 329.578 798.374 323C786.815 307.654 775.377 292.219 763.651 277C759.579 271.715 755.663 266.312 751.626 261.001C749.54 258.257 747.509 255.224 743.985 254.318C740.282 253.366 735.799 254 732 254L709 254C682.312 254 655.723 255 629 255C538.315 255 447.659 257 357 257z"/>
<path style="fill:#e0ca43; stroke:none;" d="M376 279C378.678 285.017 383.352 289.999 387.576 295C394.923 303.7 402.34 312.335 409.728 321C431.827 346.916 452.921 373.944 476 399C488.938 389.886 499.812 376.188 511 365C515.342 360.658 520.121 353.988 526 351.742C532.98 349.076 543.592 351 551 351L605 351L790 351C788.038 343.452 781.338 337.082 776.651 331C767.179 318.706 757.963 306.243 748.424 294C744.296 288.701 739.531 279.078 732.985 276.603C729.975 275.465 726.158 276 723 276L703 276C679.043 276 655.025 277 631 277C546.024 277 460.944 279 376 279M374 303L373 502C383.253 497.219 391.651 485.072 399.325 476.829C413.51 461.593 428.279 446.721 443 432C448.309 426.691 453.777 421.499 458.906 416.015C460.621 414.18 463.561 411.651 463.133 408.83C462.631 405.522 459.073 402.408 457 400C451.605 393.734 446.377 387.346 441.08 381C427.088 364.236 412.767 347.75 398.754 331C391.087 321.835 383.488 310.257 374 303M287 617C374.586 617 462.333 618 550 618L625 618C632.389 618 639.656 617.091 647 617.004C651.388 616.952 656.763 617.85 660.911 616.157C666.382 613.922 670.927 608.071 675 604C683.53 595.474 691.716 586.704 700.039 578C729.331 547.367 759.038 516.962 789 487C808.659 467.341 827.337 446.663 847 427C851.597 422.403 856.26 417.867 860.675 413.095C862.01 411.652 863.766 408.969 866.095 409.542C869.42 410.36 872.492 415.533 874.576 418C881.488 426.182 888.527 434.473 895 443C897.701 436.564 896 426.951 896 420C896 401.611 895 383.384 895 365L640 365C614.944 365 590.021 364 565 364L544 364C540.842 364 537.026 363.465 534.015 364.603C530.915 365.775 528.979 368.643 526.83 371.001C523.051 375.149 518.967 379.033 515 383L470 428C428.705 469.295 388.043 511.345 346.996 552.87C333.5 566.523 320.12 580.244 306.826 594.089C300.211 600.979 291.066 608.281 287 617M762 537C779.232 537.74 796.633 537 814 537C861.324 537 908.762 536 956 536C951.095 525.483 939.719 515.966 932.247 507C917.458 489.254 902.554 471.584 887.573 454C880.325 445.493 872.174 437.333 866 428C860.477 429.551 857.687 433.946 853.911 438C848.486 443.823 842.836 449.389 837.486 455.286C821.327 473.096 804.753 490.796 787.96 508.015C782.519 513.594 777.339 519.375 771.961 525C768.293 528.836 764.264 532.145 762 537M742 907C720.373 907 698.611 908.456 677 908.985C645.627 909.754 614.319 909.589 583 910.961C558.099 912.051 532.746 909.873 508 913L508 989C573.066 989 638.03 987.777 703 987.004C730.987 986.671 759.02 987.671 787 986.985C824.232 986.073 861.753 985 899 985L899 667L899 585L899 564C898.999 561.531 899.624 557.689 897.972 555.603C896.255 553.435 892.42 554.005 890 554L867 554C836.732 554 806.165 555.155 776 553.089C767.675 552.519 759.275 553.856 751 553.246C748.119 553.034 743.19 552.094 741.603 555.318C740.292 557.984 741 562.117 741 565L741 585C741 610.365 740.853 635.707 741.961 661C743.153 688.221 742 715.751 742 743L742 907M727 890C727 785.332 726.159 680.59 724 576C718.017 578.79 713.623 584.377 709 589C699.992 598.008 691.099 607.088 682.334 616.325C677.418 621.506 671.446 630.415 664 631.772C656.736 633.095 648.376 632 641 632L596 632L454 632L400 632C394.999 632 383.831 629.909 379.703 633.028C376.002 635.824 377 642.992 377 647L377 685C377 736.68 375 788.309 375 840C375 854.682 374 869.28 374 884C374 887.605 372.363 896.451 376.318 898.397C378.501 899.471 381.647 898.999 384 899L401 899C423.311 899 445.699 897 468 897C489.721 897 511.341 895.988 533 895.039C570.316 893.405 607.701 893.673 645 892.039C672.144 890.851 700.042 893.407 727 890z"/>
</svg>
